# xmcd CD database file
#
# Track frame offsets:
#	150
#	16232
#	27788
#	54213
#	67413
#	94200
#	111810
#	122449
#	136521
#	151448
#	169903
#	194274
#	215790
#	230600
#	253433
#	266766
#
# Disc length: 3747 seconds
#
# Revision: 1
# Processed by: cddbd v1.5.2PL0 Copyright (c) Steve Scherf et al.
# Submitted via: CDValet v3.40 - Copyright (c) 1996 - 1998 Greg Leichner
#
DISCID=e60ea110
DTITLE=McDowell, Mississippi Fred - An Introduction To Mississi
DTITLE=ppi Fred McDowell
DYEAR=1900
DGENRE=
TTITLE0=Good Morning Little School Girl
TTITLE1=Shake 'Em On Down
TTITLE2=Levee Camp Blues
TTITLE3=You Gotta Move
TTITLE4=61 Highway
TTITLE5=Baby Please Don't Go
TTITLE6=Como
TTITLE7=John Henry
TTITLE8=Kokomo Blues
TTITLE9=Someday
TTITLE10=The Train I Ride
TTITLE11=Going Down The River
TTITLE12=Ain't Gonna Worry My Life No More
TTITLE13=Louise
TTITLE14=I Asked For Whiskey, She Gave Me Gasoline
TTITLE15=My Baby Done Me Wrong
EXTD=
EXTT0=
EXTT1=
EXTT2=
EXTT3=
EXTT4=
EXTT5=
EXTT6=
EXTT7=
EXTT8=
EXTT9=
EXTT10=
EXTT11=
EXTT12=
EXTT13=
EXTT14=
EXTT15=
PLAYORDER=
